Simulation
nRows=32
nColumns=15
endheader
time  TH_x TH_y TH_z SC_y  SC_z  SC_x  AC_y  AC_z  AC_x  GH_y  GH_z  GH_yy  EL_x  PS_y
1.55  0.000000  0.000000  0.000000  -33.80329939013663  4.9310132169973455  78.49654915940033  43.141729316129016  -36.685166194054574  -39.07661207989345  19.327839871121782  56.83480125639075  -12.617471264379725  17.966398519613534  0.000000
1.581  0.000000  0.000000  0.000000  -34.19586881007185  5.183640837387157  78.68829081198294  43.3618777068768  -36.36550765581657  -38.43428199152685  19.305655310530216  57.419842428217024  -12.648238783822071  17.924632135341838  0.000000
1.612  0.000000  0.000000  0.000000  -34.5419936931894  5.397159614710103  78.81394951047314  43.57838263529643  -36.10541347495958  -37.832008463331405  19.24720630580837  57.9754997413592  -12.635748208935187  17.891156537241677  0.000000
1.643  0.000000  0.000000  0.000000  -34.83301558506572  5.552381012505765  78.88871122253053  43.79366204172754  -35.889879538609726  -37.28708008771425  19.15879843139796  58.47829745221483  -12.606401957159106  17.88374642974645  0.000000
1.674  0.000000  0.000000  0.000000  -35.08115627473186  5.6525189810136665  78.9324621539586  44.01345016160419  -35.6926896577293  -36.8063181045818  19.07181892374549  58.875649692714944  -12.59181163929597  17.90362583615685  0.000000
1.705  0.000000  0.000000  0.000000  -35.3045549563308  5.715984787167865  78.95373099031643  44.21799731115007  -35.499525585379914  -36.39335927126298  19.02317494163529  59.13192477634464  -12.588238914120678  17.940576975448252  0.000000
1.736  0.000000  0.000000  0.000000  -35.5125600110157  5.758487657487943  78.96122731329918  44.39730265099851  -35.31064177755888  -36.05558867399521  19.035030712966357  59.21747143872462  -12.59549033750572  17.981697279310847  0.000000
1.767  0.000000  0.000000  0.000000  -35.694612870365226  5.787197750580256  78.95076668878198  44.529618472859255  -35.14652325401845  -35.8136421634849  19.109002046619167  59.14075387825269  -12.602328581804455  18.01690860938485  0.000000
1.798  0.000000  0.000000  0.000000  -35.82729330438657  5.802145483447965  78.90707034284236  44.60512206411207  -35.032533503618986  -35.69191747569088  19.230236987136962  58.92786597172849  -12.610699162208014  18.043594487978357  0.000000
1.829  0.000000  0.000000  0.000000  -35.884141356498894  5.7985349991339685  78.82312314941511  44.60787801061947  -34.99571830436877  -35.71952834820664  19.380821373762558  58.610759296174265  -12.622355675670576  18.05842068866385  0.000000
1.8599999999999999  0.000000  0.000000  0.000000  -35.85277824823621  5.7683444528714265  78.69811103058923  44.54280577298466  -35.04488910135924  -35.89799440202218  19.546439472808366  58.197267050844836  -12.660972705542454  18.064778287270045  0.000000
1.891  0.000000  0.000000  0.000000  -35.732413954400705  5.695850512928875  78.54645253016638  44.42586588699042  -35.17986242286342  -36.21758843699503  19.715922606449176  57.681089036918934  -12.761485628608998  18.064419747958073  0.000000
1.922  0.000000  0.000000  0.000000  -35.53017322504195  5.566382479460194  78.38561833532786  44.28116027871487  -35.385672884166794  -36.644362726844314  19.87887277618367  57.036232410455355  -12.963124031618975  18.063992776017955  0.000000
1.953  0.000000  0.000000  0.000000  -35.25616851941142  5.376327062424469  78.21369361659575  44.127505863457884  -35.64696850227796  -37.15427739325959  20.03052993471733  56.25868868988218  -13.278291785277174  18.065747249218866  0.000000
1.984  0.000000  0.000000  0.000000  -34.92834701559173  5.135120242702626  78.02684155279547  43.961529459711635  -35.95157417598545  -37.724081278374875  20.174013269807997  55.346264051904306  -13.67599197977653  18.082472492207494  0.000000
2.015  0.000000  0.000000  0.000000  -34.56237363626163  4.8609329948868485  77.81442270078725  43.7708965609913  -36.29569475021749  -38.35885519717471  20.31818386403762  54.31816913117483  -14.10053679851588  18.11609474758325  0.000000
2.046  0.000000  0.000000  0.000000  -34.17719311018046  4.568825817455943  77.57046266255676  43.5333285326783  -36.67446707598561  -39.05295203003832  20.469487435820188  53.18705660481584  -14.490694977640405  18.180487914342702  0.000000
2.077  0.000000  0.000000  0.000000  -33.786447785189786  4.259205344469292  77.29897303124733  43.251064821768374  -37.0899728955798  -39.81143177611912  20.63089035471408  51.97303293061637  -14.82341838670258  18.2658097145775  0.000000
2.108  0.000000  0.000000  0.000000  -33.40229972055929  3.92019862026047  77.00928989928875  42.93088921105889  -37.52907910720819  -40.61844715203588  20.80107781612705  50.67996126375552  -15.094904308130456  18.370310001544993  0.000000
2.139  0.000000  0.000000  0.000000  -33.029827152005275  3.5549755408365806  76.63874159523962  42.612670261505805  -37.940661610775805  -41.41233318827096  20.98570933123189  49.3334407408779  -15.331771341721701  18.483750455875168  0.000000
2.17  0.000000  0.000000  0.000000  -32.67686922256989  3.1664930831287594  76.2223799507918  42.29716833592634  -38.33589553513302  -42.18483381072267  21.177023739054018  47.94205342615336  -15.545463441674144  18.60360402180874  0.000000
2.201  0.000000  0.000000  0.000000  -32.348643192401234  2.760434249515197  75.76113180083121  41.98330854207616  -38.71782027867906  -42.93453473124038  21.372619663833017  46.53189796813835  -15.74763953571487  18.723421336049483  0.000000
2.232  0.000000  0.000000  0.000000  -32.04545108403786  2.3416469657777266  75.25747491669806  41.66432631275249  -39.081226551383736  -43.65742605028813  21.564615863294215  45.1112144094768  -15.930939895890464  18.84511230504644  0.000000
2.263  0.000000  0.000000  0.000000  -31.764492034609972  1.9168194782921275  74.70265866660228  41.33639418130688  -39.42219201827752  -44.3528161894  21.74784058412999  43.69664605957901  -16.094280374405514  18.96157363677712  0.000000
2.294  0.000000  0.000000  0.000000  -31.50451236673396  1.4878820684205742  74.10088384729985  40.998695447851404  -39.73162631151354  -45.013951145611976  21.917520618806012  42.290006497577416  -16.222047627802944  19.0698681554559  0.000000
2.325  0.000000  0.000000  0.000000  -31.26397919111591  1.0582452759491554  73.45884387478073  40.655640999611386  -40.00642035286223  -45.64229898698645  22.07276595742441  40.898607782832876  -16.307107078771423  19.16749946253876  0.000000
2.356  0.000000  0.000000  0.000000  -31.047743258314963  0.6308704013521221  72.79732433256784  40.310154772872245  -40.25026533697978  -46.23315372654097  22.21376143187621  39.51756769954206  -16.33365658836302  19.24692446273669  0.000000
2.387  0.000000  0.000000  0.000000  -30.854512046119435  0.21221039510552647  72.12703619450619  39.96155113072356  -40.465647010647366  -46.79220987616019  22.34159017184733  38.14407447273551  -16.300066459084732  19.312198127195167  0.000000
2.418  0.000000  0.000000  0.000000  -30.685083571394298  -0.18814428143766193  71.46149505324027  39.603173862614284  -40.66117400912032  -47.320457545049265  22.454476112865553  36.76509151787522  -16.198183887935546  19.363981680912616  0.000000
2.449  0.000000  0.000000  0.000000  -30.534564317651146  -0.5611331403131052  70.80324395301758  39.223754350589815  -40.83841302214971  -47.824029217286736  22.552121053111005  35.368376460762086  -16.031687951759043  19.410766435822616  0.000000
2.48  0.000000  0.000000  0.000000  -30.399374494610626  -0.8983622280135346  70.15887586409927  38.821246509843085  -41.00073941006467  -48.30425482482523  22.636724919503212  33.93552925391082  -15.79895896573137  19.45949050282003  0.000000
2.511  0.000000  0.000000  0.000000  -30.275084714515348  -1.2061198886767723  69.53480989883626  38.40109931986374  -41.145446455589514  -48.763351682028954  22.711170702179093  32.45445833586316  -15.512129444964724  19.51325118619006  0.000000
